<?xml version="1.0" encoding="UTF-8"?>
<svg width="43px" height="40px" viewBox="0 0 43 40" version="1.1" xmlns="http://www.w3.org/2000/svg" xmlns:xlink="http://www.w3.org/1999/xlink">
    <!-- Generator: Sketch 48.2 (47327) - http://www.bohemiancoding.com/sketch -->
    <title>noun_981162_cc</title>
    <desc>Created with Sketch.</desc>
    <defs></defs>
    <g id="Page-1" stroke="none" stroke-width="1" fill="none" fill-rule="evenodd">
        <g id="noun_981162_cc" fill="#FFFFFF" fill-rule="nonzero">
            <g id="Group">
                <path d="M8.95238095,15.5555556 L11.2380952,13.2698413 L11.2380952,21.0793651 L8.82539683,21.0793651 L8.82539683,22.031746 L33.6507937,22.031746 L33.6507937,21.0793651 L31.3015873,21.0793651 L31.3015873,3.68253968 L32.8888889,2.0952381 L32.8888889,3.93650794 L33.8412698,3.93650794 L33.8412698,0.444444444 L30.4761905,0.444444444 L30.4761905,1.3968254 L32.2539683,1.3968254 L22.2857143,11.3015873 L17.0793651,6.0952381 L8.25396825,14.9206349 L8.95238095,15.5555556 Z M12.1904762,12.3174603 L15.047619,9.46031746 L15.047619,21.0793651 L12.1904762,21.0793651 L12.1904762,12.3174603 Z M23.6190476,21.1428571 L23.6190476,11.3015873 L26.4761905,8.44444444 L26.4761905,21.1428571 L23.6190476,21.1428571 Z M30.3492063,21.1428571 L27.4920635,21.1428571 L27.4920635,7.49206349 L30.3492063,4.63492063 L30.3492063,21.1428571 Z M22.6666667,12.2539683 L22.6666667,21.0793651 L19.8095238,21.0793651 L19.8095238,10.2222222 L22.2857143,12.6984127 L22.6666667,12.2539683 Z M18.8571429,9.26984127 L18.8571429,21.0793651 L16,21.0793651 L16,8.50793651 L17.0793651,7.42857143 L18.8571429,9.26984127 Z" id="Shape"></path>
                <path d="M40.3174603,8.12698413 L32.3174603,8.12698413 L32.3174603,9.07936508 L40.3174603,9.07936508 C40.7619048,9.07936508 41.1428571,9.46031746 41.1428571,9.9047619 L41.1428571,29.5873016 L1.46031746,29.5873016 L1.46031746,9.9047619 C1.46031746,9.46031746 1.84126984,9.07936508 2.22222222,9.07936508 L12.6349206,9.07936508 L12.6349206,8.12698413 L2.22222222,8.12698413 C1.26984127,8.12698413 0.444444444,8.88888889 0.444444444,9.9047619 L0.444444444,32.1269841 C0.444444444,33.0793651 1.20634921,33.9047619 2.22222222,33.9047619 L16.1269841,33.9047619 L13.5873016,38.6666667 L10.7936508,38.6666667 L10.7936508,39.6190476 L31.8730159,39.6190476 L31.8730159,38.6666667 L29.015873,38.6666667 L26.4761905,33.9047619 L40.3809524,33.9047619 C41.3333333,33.9047619 42.1587302,33.1428571 42.1587302,32.1269841 L42.1587302,9.9047619 C42.0952381,8.88888889 41.2698413,8.12698413 40.3174603,8.12698413 Z M27.9365079,38.6031746 L14.6031746,38.6031746 L17.1428571,33.8412698 L25.2698413,33.8412698 L27.9365079,38.6031746 Z M40.3174603,32.8888889 L25.9047619,32.8888889 L16.6349206,32.8888889 L2.22222222,32.8888889 C1.77777778,32.8888889 1.46031746,32.5079365 1.46031746,32.0634921 L1.46031746,30.4761905 L41.1428571,30.4761905 L41.1428571,32.0634921 C41.1428571,32.5714286 40.7619048,32.8888889 40.3174603,32.8888889 Z" id="Shape"></path>
            </g>
        </g>
    </g>
</svg>