<?xml version="1.0" encoding="UTF-8"?>
<svg width="39px" height="40px" viewBox="0 0 39 40" version="1.1" xmlns="http://www.w3.org/2000/svg" xmlns:xlink="http://www.w3.org/1999/xlink">
    <!-- Generator: Sketch 48.2 (47327) - http://www.bohemiancoding.com/sketch -->
    <title>noun_981036_cc</title>
    <desc>Created with Sketch.</desc>
    <defs></defs>
    <g id="Page-1" stroke="none" stroke-width="1" fill="none" fill-rule="evenodd">
        <g id="noun_981036_cc" fill="#FFFFFF" fill-rule="nonzero">
            <g id="Group">
                <path d="M4.35820896,11.7014925 L4.41791045,12.119403 C4.59701493,13.1940299 4.95522388,14.1492537 5.67164179,14.9850746 C6.80597015,16.4179104 8.53731343,17.2537313 10.4477612,17.2537313 C11.7014925,17.2537313 12.8358209,16.8955224 13.8507463,16.1791045 L14.2089552,15.880597 L14.5671642,15.5820896 C15.2238806,14.9850746 15.761194,14.2686567 16.119403,13.3731343 C17.3731343,10.2686567 15.8208955,6.74626866 12.7164179,5.49253731 L12.2985075,5.31343284 L10.1492537,10.6865672 L4.35820896,11.7014925 Z M12.7164179,6.62686567 C15.1044776,7.82089552 16.1791045,10.6268657 15.2238806,13.1343284 C14.9253731,13.9104478 14.5074627,14.4477612 13.9701493,14.9850746 L10.9253731,11.1641791 L12.7164179,6.62686567 Z M13.2537313,15.5820896 C12.4179104,16.119403 11.4626866,16.4179104 10.3880597,16.4179104 C8.7761194,16.4179104 7.34328358,15.7014925 6.32835821,14.4477612 C5.85074627,13.7910448 5.49253731,13.1940299 5.37313433,12.4179104 L10.2089552,11.7014925 L13.2537313,15.5820896 Z" id="Shape"></path>
                <path d="M11.7014925,4.23880597 L11.2835821,4.05970149 C10.2686567,3.64179104 9.25373134,3.52238806 8.17910448,3.70149254 C6.56716418,3.94029851 5.13432836,4.7761194 4.17910448,6.08955224 C3.2238806,7.40298507 2.80597015,9.01492537 3.04477612,10.5671642 L3.10447761,10.9850746 L9.37313433,10.0895522 L11.7014925,4.23880597 Z M3.88059701,10.0298507 C3.82089552,8.8358209 4.17910448,7.64179104 4.89552239,6.62686567 C5.73134328,5.49253731 6.92537313,4.7761194 8.29850746,4.59701493 C8.59701493,4.53731343 8.8358209,4.53731343 9.07462687,4.53731343 C9.55223881,4.53731343 10.0298507,4.59701493 10.5074627,4.7761194 L8.71641791,9.31343284 L3.88059701,10.0298507 Z" id="Shape"></path>
                <polygon id="Shape" points="25.7313433 24.119403 24.8358209 24.119403 24.8358209 35.1044776 21.0746269 35.1044776 21.0746269 28.9552239 20.1791045 28.9552239 20.1791045 35.1044776 16.358209 35.1044776 16.358209 23.0447761 15.4626866 23.0447761 15.4626866 35.1044776 11.7014925 35.1044776 11.7014925 26.7462687 10.8059701 26.7462687 10.8059701 35.1044776 6.98507463 35.1044776 6.98507463 30.5671642 6.08955224 30.5671642 6.08955224 35.1044776 4.23880597 35.1044776 4.23880597 36 27.641791 36 27.641791 35.1044776 25.7313433 35.1044776"></polygon>
                <path d="M31.9402985,24.6567164 L31.9402985,0.47761194 L0.119402985,0.47761194 L0.119402985,35.761194 C0.119402985,37.8507463 1.85074627,39.5820896 3.94029851,39.5820896 L34.8059701,39.5820896 C36.8955224,39.5820896 38.6268657,37.8507463 38.6268657,35.761194 L38.6268657,24.6567164 L31.9402985,24.6567164 Z M3.94029851,38.6865672 C2.32835821,38.6865672 1.01492537,37.3731343 1.01492537,35.761194 L1.01492537,1.37313433 L31.0447761,1.37313433 L31.0447761,35.761194 C31.0447761,36.9552239 31.5820896,37.9701493 32.4179104,38.6865672 L3.94029851,38.6865672 Z M37.7910448,35.761194 C37.7910448,37.3731343 36.4776119,38.6865672 34.8656716,38.6865672 C33.2537313,38.6865672 31.9402985,37.3731343 31.9402985,35.761194 L31.9402985,25.5522388 L37.7910448,25.5522388 L37.7910448,35.761194 Z" id="Shape"></path>
                <rect id="Rectangle-path" x="34.3880597" y="27.4029851" width="1" height="1"></rect>
                <rect id="Rectangle-path" x="34.3880597" y="30.0895522" width="1" height="1"></rect>
                <rect id="Rectangle-path" x="34.3880597" y="32.7761194" width="1" height="1"></rect>
                <rect id="Rectangle-path" x="34.3880597" y="35.4626866" width="1" height="1"></rect>
                <rect id="Rectangle-path" x="18.0895522" y="14.7462687" width="11.3432836" height="1"></rect>
                <rect id="Rectangle-path" x="19.4029851" y="11.4626866" width="10.0298507" height="1"></rect>
                <rect id="Rectangle-path" x="21.7313433" y="8.17910448" width="7.70149254" height="1"></rect>
            </g>
        </g>
    </g>
</svg>