<?xml version="1.0" encoding="UTF-8"?>
<svg width="786px" height="750px" viewBox="0 0 786 750" version="1.1" xmlns="http://www.w3.org/2000/svg" xmlns:xlink="http://www.w3.org/1999/xlink">
    <!-- Generator: Sketch 48.2 (47327) - http://www.bohemiancoding.com/sketch -->
    <title>miota</title>
    <desc>Created with Sketch.</desc>
    <defs></defs>
    <g id="Page-1" stroke="none" stroke-width="1" fill="none" fill-rule="evenodd">
        <g id="miota" transform="translate(-100.000000, -120.000000)" fill-rule="nonzero">
            <circle id="Oval" fill="#000000" opacity="0" cx="500" cy="500" r="500"></circle>
            <g id="Group" transform="translate(100.000000, 120.000000)" fill="#FFFFFF">
                <circle id="Oval" cx="571.13" cy="45.32" r="45.32"></circle>
                <circle id="Oval" cx="583.51" cy="164.21" r="38.37"></circle>
                <circle id="Oval" cx="684.12" cy="178.58" r="38.28"></circle>
                <circle id="Oval" cx="671.77" cy="279.97" r="32.74"></circle>
                <circle id="Oval" cx="752.28" cy="310.96" r="32.95"></circle>
                <circle id="Oval" cx="570.57" cy="266.13" r="33.54"></circle>
                <circle id="Oval" cx="541.32" cy="347.75" r="28.13"></circle>
                <circle id="Oval" cx="642.02" cy="361.52" r="27.92"></circle>
                <circle id="Oval" cx="722.4" cy="392.34" r="28.17"></circle>
                <circle id="Oval" cx="682.53" cy="454.48" r="23.76"></circle>
                <circle id="Oval" cx="601.84" cy="423.39" r="24.28"></circle>
                <circle id="Oval" cx="501.2" cy="409.44" r="24.06"></circle>
                <circle id="Oval" cx="557" cy="466.87" r="20.97"></circle>
                <circle id="Oval" cx="637.69" cy="497.85" r="21.15"></circle>
                <circle id="Oval" cx="592.08" cy="525.24" r="16.67"></circle>
                <circle id="Oval" cx="548.93" cy="539.21" r="15.15"></circle>
                <circle id="Oval" cx="511.38" cy="495.07" r="17.99"></circle>
                <circle id="Oval" cx="456.22" cy="453.1" r="20.92"></circle>
                <circle id="Oval" cx="621.36" cy="681.22" r="45.09"></circle>
                <circle id="Oval" cx="511.64" cy="633.46" r="37.61"></circle>
                <circle id="Oval" cx="449.19" cy="712.07" r="37.93"></circle>
                <circle id="Oval" cx="430.19" cy="571.22" r="32.85"></circle>
                <circle id="Oval" cx="367.77" cy="651.32" r="32.77"></circle>
                <circle id="Oval" cx="300.69" cy="705.79" r="32.66"></circle>
                <circle id="Oval" cx="244.53" cy="639.44" r="27.84"></circle>
                <circle id="Oval" cx="311.82" cy="584.84" r="27.89"></circle>
                <circle id="Oval" cx="374.59" cy="504.79" r="27.92"></circle>
                <circle id="Oval" cx="278.4" cy="519.23" r="24.16"></circle>
                <circle id="Oval" cx="211.44" cy="573.76" r="23.96"></circle>
                <circle id="Oval" cx="195.94" cy="513.06" r="20.74"></circle>
                <circle id="Oval" cx="195.19" cy="459.83" r="17.79"></circle>
                <circle id="Oval" cx="204.37" cy="415.74" r="15.14"></circle>
                <circle id="Oval" cx="262.3" cy="405.4" r="17.99"></circle>
                <circle id="Oval" cx="325.7" cy="378.37" r="20.96"></circle>
                <circle id="Oval" cx="340.91" cy="439.03" r="23.85"></circle>
                <circle id="Oval" cx="263.14" cy="458.73" r="20.78"></circle>
                <circle id="Oval" cx="45.29" cy="407.31" r="44.95"></circle>
                <circle id="Oval" cx="142.46" cy="336.62" r="38.5"></circle>
                <circle id="Oval" cx="104.36" cy="242.33" r="38.3"></circle>
                <circle id="Oval" cx="198.06" cy="202.58" r="32.83"></circle>
                <circle id="Oval" cx="236.42" cy="296.63" r="32.94"></circle>
                <circle id="Oval" cx="321.67" cy="281.56" r="28.05"></circle>
                <circle id="Oval" cx="395.39" cy="285.38" r="24.15"></circle>
                <circle id="Oval" cx="456.22" cy="302.62" r="20.34"></circle>
                <circle id="Oval" cx="464.02" cy="234.08" r="17.74"></circle>
                <circle id="Oval" cx="417.23" cy="208.37" r="20.55"></circle>
                <circle id="Oval" cx="357.12" cy="191.18" r="24.02"></circle>
                <circle id="Oval" cx="283.63" cy="187.57" r="28.07"></circle>
                <circle id="Oval" cx="184.52" cy="117.09" r="31.84"></circle>
                <circle id="Oval" cx="269.7" cy="102.01" r="28.09"></circle>
                <circle id="Oval" cx="343.4" cy="105.88" r="24.22"></circle>
                <circle id="Oval" cx="403.8" cy="123.14" r="20.39"></circle>
                <circle id="Oval" cx="450.23" cy="148.93" r="18.23"></circle>
                <circle id="Oval" cx="484.15" cy="179.21" r="15"></circle>
            </g>
        </g>
    </g>
</svg>