<?xml version="1.0" encoding="UTF-8"?>
<svg width="350px" height="53px" viewBox="0 0 350 53" version="1.1" xmlns="http://www.w3.org/2000/svg" xmlns:xlink="http://www.w3.org/1999/xlink">
    <!-- Generator: Sketch 48.2 (47327) - http://www.bohemiancoding.com/sketch -->
    <title>PECUNIAN</title>
    <desc>Created with Sketch.</desc>
    <defs></defs>
    <g id="Page-1" stroke="none" stroke-width="1" fill="none" fill-rule="evenodd">
        <path d="M35.848,17.431 C35.8940002,17.7070014 35.9284999,17.9829986 35.9515,18.259 C35.9745001,18.5350014 35.986,18.8339984 35.986,19.156 L35.986,19.294 C35.986,19.6160016 35.9745001,19.9149986 35.9515,20.191 C35.9284999,20.4670014 35.8940002,20.7429986 35.848,21.019 L35.848,21.088 L35.641,22.744 C35.5949998,22.7900002 35.572,22.8819993 35.572,23.02 C35.5259998,23.2500011 35.4800002,23.4569991 35.434,23.641 C35.3879998,23.8250009 35.3190005,24.0319989 35.227,24.262 C34.5829968,26.3780106 33.6285063,28.2639917 32.3635,29.92 C31.0984937,31.5760083 29.569009,32.9789942 27.775,34.129 C26.2569924,35.0490046 24.5780092,35.7734974 22.738,36.3025 C20.8979908,36.8315026 18.9430104,37.096 16.873,37.096 L7.834,37.096 L7.834,52.069 L0.451,52.069 L0.451,1.354 L16.873,1.354 C21.0130207,1.354 24.6469844,2.34299011 27.775,4.321 C29.569009,5.47100575 31.0984937,6.87399172 32.3635,8.53 C33.6285063,10.1860083 34.5829968,12.0489897 35.227,14.119 C35.4110009,14.6250025 35.5259998,15.0619982 35.572,15.43 C35.572,15.5680007 35.5949998,15.6599998 35.641,15.706 C35.6870002,15.9820014 35.7214999,16.2579986 35.7445,16.534 C35.7675001,16.8100014 35.8019998,17.0629988 35.848,17.293 L35.848,17.431 Z M17.77,30.61 C19.2880076,30.61 20.6794937,30.2880032 21.9445,29.644 C23.2095063,28.9999968 24.3134953,28.1490053 25.2565,27.091 C26.1995047,26.0329947 26.9354974,24.8255068 27.4645,23.4685 C27.9935026,22.1114932 28.258,20.6970074 28.258,19.225 C28.258,17.7529926 27.9935026,16.3385068 27.4645,14.9815 C26.9354974,13.6244932 26.1995047,12.4170053 25.2565,11.359 C24.3134953,10.3009947 23.2095063,9.45000322 21.9445,8.806 C20.6794937,8.16199678 19.2880076,7.84 17.77,7.84 L7.903,7.84 L7.903,30.61 L17.77,30.61 Z M54.202,32.611 L54.202,44.617 L76.696,44.617 L76.696,51.862 L46.888,51.862 L46.888,1.492 L76.213,1.492 L76.213,8.53 L54.202,8.53 L54.202,25.711 L74.005,25.711 L74.005,32.611 L54.202,32.611 Z M112.576,45.031 C115.520015,45.031 118.222488,44.329507 120.6835,42.9265 C123.144512,41.523493 125.156992,39.6490117 126.721,37.303 L132.724,41.788 C130.423989,44.9160156 127.537517,47.3999908 124.0645,49.24 C120.591483,51.0800092 116.762021,52 112.576,52 C109.125983,52 105.883015,51.3330067 102.847,49.999 C99.8109848,48.6649933 97.1660113,46.8595114 94.912,44.5825 C92.6579887,42.3054886 90.8755066,39.6375153 89.5645,36.5785 C88.2534934,33.5194847 87.598,30.2420175 87.598,26.746 C87.598,23.2499825 88.2534934,19.9725153 89.5645,16.9135 C90.8755066,13.8544847 92.6579887,11.1865114 94.912,8.9095 C97.1660113,6.63248861 99.8109848,4.82700667 102.847,3.493 C105.883015,2.15899333 109.125983,1.492 112.576,1.492 C116.762021,1.492 120.591483,2.4119908 124.0645,4.252 C127.537517,6.0920092 130.423989,8.57598436 132.724,11.704 L126.721,16.189 C125.156992,13.8429883 123.144512,11.968507 120.6835,10.5655 C118.222488,9.16249298 115.520015,8.461 112.576,8.461 C110.183988,8.461 107.94151,8.94399517 105.8485,9.91 C103.75549,10.8760048 101.927008,12.1869917 100.363,13.843 C98.7989922,15.4990083 97.5570046,17.430989 96.637,19.639 C95.7169954,21.847011 95.257,24.2159873 95.257,26.746 C95.257,29.2760126 95.7169954,31.644989 96.637,33.853 C97.5570046,36.061011 98.7989922,37.9929917 100.363,39.649 C101.927008,41.3050083 103.75549,42.6159952 105.8485,43.582 C107.94151,44.5480048 110.183988,45.031 112.576,45.031 Z M170.467,1.423 L177.712,1.423 L177.712,35.233 C177.712,37.5790117 177.263504,39.7639899 176.3665,41.788 C175.469496,43.8120101 174.239008,45.5714925 172.675,47.0665 C171.110992,48.5615075 169.29401,49.7459956 167.224,50.62 C165.15399,51.4940044 162.923012,51.931 160.531,51.931 C158.184988,51.931 155.98851,51.4940044 153.9415,50.62 C151.89449,49.7459956 150.100508,48.5615075 148.5595,47.0665 C147.018492,45.5714925 145.811004,43.8120101 144.937,41.788 C144.062996,39.7639899 143.626,37.5790117 143.626,35.233 L143.626,1.423 L150.871,1.423 L150.871,35.233 C150.871,36.5670067 151.123997,37.8204941 151.63,38.9935 C152.136003,40.1665059 152.825996,41.2014955 153.7,42.0985 C154.574004,42.9955045 155.608994,43.6969975 156.805,44.203 C158.001006,44.7090025 159.265993,44.962 160.6,44.962 C161.980007,44.962 163.267994,44.7090025 164.464,44.203 C165.660006,43.6969975 166.706496,42.9955045 167.6035,42.0985 C168.500504,41.2014955 169.201997,40.1665059 169.708,38.9935 C170.214003,37.8204941 170.467,36.5670067 170.467,35.233 L170.467,1.423 Z M195.583,20.191 L195.583,52.138 L188.614,52.138 L188.614,0.595 L221.32,39.718 L221.32,1.492 L228.289,1.492 L228.289,52.138 L221.527,52.138 L195.583,20.191 Z M239.191,52 L239.191,1.423 L246.574,1.423 L246.574,52 L239.191,52 Z M257.476,51.931 L278.107,1.354 L298.738,51.931 L291.217,51.931 L289.699,47.929 L266.584,47.929 L264.997,51.931 L257.476,51.931 Z M269.068,41.512 L287.146,41.512 L278.107,18.328 L269.068,41.512 Z M316.609,20.191 L316.609,52.138 L309.64,52.138 L309.64,0.595 L342.346,39.718 L342.346,1.492 L349.315,1.492 L349.315,52.138 L342.553,52.138 L316.609,20.191 Z" id="PECUNIAN" fill="#FFFFFF"></path>
    </g>
</svg>