<?xml version="1.0" encoding="UTF-8"?>
<svg width="824px" height="121px" viewBox="0 0 824 121" version="1.1" xmlns="http://www.w3.org/2000/svg" xmlns:xlink="http://www.w3.org/1999/xlink">
    <!-- Generator: Sketch 48.2 (47327) - http://www.bohemiancoding.com/sketch -->
    <title>PECUNIAN</title>
    <desc>Created with Sketch.</desc>
    <defs></defs>
    <g id="Page-1" stroke="none" stroke-width="1" fill="none" fill-rule="evenodd">
        <path d="M88.788,11.978 C96.64,19.981 100.566,29.494 100.566,40.517 C100.566,51.54 96.791,61.204 88.788,69.056 C80.936,76.908 71.423,80.834 60.4,80.834 L20.083,80.834 L20.083,121 L0,121 L0,60.6 L60.4,60.6 C65.836,60.6 70.517,58.637 74.443,54.711 C78.369,50.785 80.483,46.104 80.483,40.517 C80.483,35.081 78.52,30.249 74.443,26.323 C70.517,22.397 65.836,20.434 60.4,20.434 L20.083,20.434 L0,0.2 L60.4,0.2 C71.423,0.2 80.936,4.126 88.788,11.978 Z M110.815,119.339 L130.898,100.766 L191.298,100.766 L191.298,121 L110.815,121 L110.815,119.339 Z M110.815,0.2 L191.298,0.2 L191.298,20.434 L130.898,20.434 L110.815,0.2 Z M110.815,50.634 L191.298,50.634 L191.298,70.717 L110.815,70.717 L110.815,50.634 Z M254.396999,116.168 C246.997999,112.997 240.655999,108.618 235.068999,103.182 C229.632999,97.595 225.253999,91.253 222.082999,83.854 C218.911999,76.455 217.250999,68.754 217.250999,60.6 C217.250999,52.295 218.911999,44.443 222.082999,37.044 C225.253999,29.796 229.632999,23.454 235.068999,18.018 C240.655999,12.431 246.997999,8.203 254.396999,5.032 C261.644999,1.861 269.496999,0.2 277.801999,0.2 C286.106999,0.2 293.958999,1.71 301.206999,4.881 C308.454999,8.052 314.947999,12.431 320.534999,18.018 L306.189999,32.061 C298.186999,24.209 288.673999,20.434 277.801999,20.434 C272.214999,20.434 266.929999,21.491 262.097999,23.454 C257.114999,25.568 252.886999,28.437 249.262999,32.212 C245.638999,35.836 242.769999,40.064 240.655999,44.896 C238.541999,49.879 237.484999,55.013 237.484999,60.6 C237.484999,66.187 238.541999,71.321 240.655999,76.304 C242.769999,81.136 245.638999,85.364 249.413999,88.988 C253.037999,92.763 257.265999,95.632 262.097999,97.746 C267.080999,99.709 272.214999,100.766 277.801999,100.766 L301.206999,116.319 C293.958999,119.49 286.106999,121 277.801999,121 C269.496999,121 261.644999,119.339 254.396999,116.168 Z M416.853999,70.717 L436.936999,70.717 C436.936999,84.609 432.104999,96.538 422.138999,106.353 C412.323999,116.168 400.243999,121 386.502999,121 C372.761999,121 360.832999,116.168 351.017999,106.353 C341.202999,96.538 336.370999,84.458 336.370999,70.717 L336.370999,0.2 L356.453999,0.2 L356.453999,70.717 C356.453999,79.022 359.322999,86.119 365.060999,91.857 C370.949999,97.897 378.197999,100.766 386.502999,100.766 C394.807999,100.766 401.904999,97.746 407.793999,91.857 C413.682999,85.968 416.853999,78.871 416.853999,70.717 Z M491.428998,0.2 L511.511998,0.2 L511.511998,121 L411.096998,30.702 L411.096998,0.2 L491.428998,72.529 L491.428998,0.2 Z M565.097998,20.132 L565.097998,100.766 L545.014998,121 L545.014998,0.2 L565.097998,20.132 Z M626.686998,80.834 L616.720998,100.766 L606.452998,121 L584.104998,121 L644.504998,0.2 L684.821998,80.834 L662.171998,80.834 L644.504998,45.349 L626.686998,80.834 Z M694.787998,100.917 L704.904998,121 L682.405998,121 L672.439998,100.917 L694.787998,100.917 Z M803.035997,0.2 L823.118997,0.2 L823.118997,121 L722.703997,30.702 L722.703997,0.2 L803.035997,72.529 L803.035997,0.2 Z" id="PECUNIAN" fill="#FFFFFF"></path>
    </g>
</svg>