<?xml version="1.0" encoding="UTF-8"?>
<svg width="47px" height="40px" viewBox="0 0 47 40" version="1.1" xmlns="http://www.w3.org/2000/svg" xmlns:xlink="http://www.w3.org/1999/xlink">
    <!-- Generator: Sketch 48.2 (47327) - http://www.bohemiancoding.com/sketch -->
    <title>noun_981032_cc</title>
    <desc>Created with Sketch.</desc>
    <defs></defs>
    <g id="Page-1" stroke="none" stroke-width="1" fill="none" fill-rule="evenodd">
        <g id="noun_981032_cc" fill="#FFFFFF" fill-rule="nonzero">
            <g id="Group">
                <path d="M45.3333333,34.245614 L36.4210526,26.1754386 C38.1754386,23.7894737 39.0175439,20.8421053 38.877193,17.8947368 C38.7368421,15.0877193 37.754386,12.5614035 36.1403509,10.4561404 L44.5614035,2.03508772 L44.5614035,5.33333333 L45.6140351,5.33333333 L45.6140351,0.210526316 L40.4912281,0.210526316 L40.4912281,1.26315789 L43.7894737,1.26315789 L35.5087719,9.61403509 C33.3333333,7.22807018 30.3157895,5.61403509 26.877193,5.33333333 C22.6666667,4.98245614 18.7368421,6.59649123 16,9.68421053 C13.4736842,12.4912281 12.3508772,16.2105263 12.7719298,20 C13.0526316,22.1052632 13.754386,24.0701754 14.9473684,25.754386 L10.9473684,25.754386 L0.631578947,36.1403509 L1.40350877,36.9122807 L11.4385965,26.877193 L15.7894737,26.877193 C18.245614,29.754386 21.8947368,31.5789474 25.9649123,31.5789474 C28.5614035,31.5789474 31.0877193,30.8070175 33.1929825,29.3333333 L40.7719298,38.5964912 C41.4035088,39.2982456 42.245614,39.7192982 43.2280702,39.7192982 C44.0701754,39.7192982 44.8421053,39.3684211 45.4736842,38.8070175 C46.1052632,38.1754386 46.4561404,37.3333333 46.4561404,36.4210526 C46.3859649,35.6491228 46.0350877,34.8070175 45.3333333,34.245614 Z M44.7017544,38.1052632 C43.8596491,38.9473684 42.3157895,38.877193 41.6140351,37.9649123 L33.3333333,27.8596491 L32.9122807,28.1403509 C30.877193,29.6842105 28.4210526,30.4561404 25.8245614,30.4561404 C19.7192982,30.4561404 14.5263158,25.8947368 13.8245614,19.8596491 C13.4035088,16.3508772 14.4561404,12.9824561 16.7719298,10.3859649 C19.2982456,7.57894737 22.9473684,6.03508772 26.8070175,6.38596491 C32.8421053,6.87719298 37.6140351,11.7894737 37.8947368,17.8947368 C38.0350877,20.7719298 37.122807,23.6491228 35.2982456,25.8947368 L35.0175439,26.3157895 L44.6315789,35.0175439 C45.0526316,35.4385965 45.3333333,36 45.3333333,36.5614035 C45.4035088,37.122807 45.122807,37.6842105 44.7017544,38.1052632 Z" id="Shape"></path>
                <rect id="Rectangle-path" transform="translate(41.520596, 34.781579) rotate(-43.046847) translate(-41.520596, -34.781579) " x="40.9942777" y="34.2552602" width="1.05263758" height="1.05263758"></rect>
                <rect id="Rectangle-path" transform="translate(42.962561, 36.278175) rotate(-133.022553) translate(-42.962561, -36.278175) " x="42.436235" y="35.751849" width="1.05265289" height="1.05265289"></rect>
                <polygon id="Shape" points="32.2105263 14.5964912 31.1578947 14.5964912 31.1578947 21.8245614 28.2807018 21.8245614 28.2807018 10.1754386 27.2280702 10.1754386 27.2280702 21.8245614 24.3508772 21.8245614 24.3508772 12.6315789 23.2982456 12.6315789 23.2982456 21.8245614 20.4912281 21.8245614 20.4912281 17.4736842 19.4385965 17.4736842 19.4385965 21.8245614 17.0526316 21.8245614 17.0526316 22.877193 34.5263158 22.877193 34.5263158 21.8245614 32.2105263 21.8245614"></polygon>
            </g>
        </g>
    </g>
</svg>